<svg width="367" height="151" viewBox="0 0 367 151" fill="none" xmlns="http://www.w3.org/2000/svg">
<g clip-path="url(#clip0_4_30)">
<path d="M6.02266 99.8477C0.807488 97.4151 0 95.4265 0 85.0155C0 76.6073 0.366996 74.8005 2.55251 72.449C4.86713 69.9586 6.75745 69.5477 15.8998 69.5477C25.0422 69.5477 26.9325 69.9586 29.2472 72.449C31.4327 74.8005 31.7997 76.6073 31.7997 85.0155C31.7997 93.7827 31.4509 95.2825 28.7771 98.0152C26.485 100.358 23.677 100.982 15.451 100.976C9.08452 100.971 8.20768 100.867 6.02266 99.8477ZM42.1587 100.475C40.0035 99.8494 37.0927 97.2531 36.0843 95.0573C34.87 92.4126 34.7494 78.1227 35.9181 75.356C37.823 70.8464 40.5841 69.5515 48.3257 69.5373C52.3125 69.5297 54.3996 69.323 55.312 68.8448C56.9 68.0124 101.663 23.7268 101.663 22.9881C101.663 22.699 101.333 22.1923 100.931 21.8619C100.072 21.157 99.9681 21.2314 94.1945 26.6762C89.3945 31.2029 88.0095 31.9143 83.4002 32.2211C78.9161 32.5194 76.1898 31.8451 73.9236 29.877C70.6763 27.0568 70.3447 25.8072 70.3447 16.3887C70.3447 6.97022 70.6763 5.72053 73.9236 2.90034C76.4346 0.719658 82.6 -0.600835 90.8615 0.2722L94.1715 0.65273L97.6528 1.35135C106.384 3.10348 114.229 14.8129 117.503 23.2302C119.4 28.1072 119.971 31.4928 119.971 37.8609C119.971 51.8331 113.474 63.4553 100.571 72.5625C93.0619 77.8627 86.2248 79.9555 74.922 80.4138L67.2129 80.7263L66.9591 87.3984C66.6881 94.5199 66.443 95.375 63.916 98.0152C61.6563 100.376 58.8725 100.988 50.6234 100.938C46.7628 100.915 42.9536 100.706 42.1587 100.475ZM6.86048 66.0312C4.42879 65.1588 1.9164 62.932 0.923247 60.7688C0.158102 59.1021 0.0195537 57.5897 0.0105791 50.8059C-0.000822816 42.2827 0.357472 40.4974 2.55251 38.1356C4.86713 35.6452 6.75745 35.2343 15.8998 35.2343C25.0422 35.2343 26.9325 35.6452 29.2472 38.1356C31.4422 40.4974 31.8004 42.2827 31.7891 50.8059C31.7802 57.5537 31.6393 59.1071 30.8877 60.7439C29.7584 63.2033 26.9829 65.4807 24.301 66.1487C21.528 66.8393 8.87569 66.754 6.86048 66.0312ZM41.6912 65.9074C39.3696 65.0667 37.3249 63.2193 36.0919 60.8482C35.2928 59.3115 35.1724 58.0145 35.1724 50.9439C35.1724 42.2767 35.5262 40.5012 37.7249 38.1355C40.0395 35.6451 41.9298 35.2342 51.0722 35.2342C60.5092 35.2342 62.2684 35.6558 64.6848 38.4963C66.4222 40.5385 66.9662 42.7566 66.9693 47.8112C66.9729 53.4985 66.2321 54.8962 60.0932 60.7846C56.472 64.258 54.6424 65.6625 53.1845 66.0882C50.5213 66.8658 44.057 66.7641 41.6912 65.9074ZM42.1587 31.868C39.9843 31.207 37.0866 28.613 36.0843 26.4304C35.3304 24.7885 35.1919 23.2357 35.1829 16.3239C35.1726 8.30695 35.1969 8.11092 36.5139 5.61735C37.5999 3.56108 38.3445 2.82457 40.4234 1.75034C42.9143 0.463235 43.2176 0.423485 50.5249 0.426062C54.6684 0.427527 58.925 0.666777 59.9842 0.957486C62.4981 1.64782 65.7342 4.84874 66.4321 7.33531C67.1207 9.78891 67.1266 22.4816 66.4402 24.967C65.7218 27.5682 63.9391 29.7715 61.5237 31.0434C59.6973 32.0052 58.7426 32.1166 51.554 32.2072C47.1815 32.2623 42.9536 32.1097 42.1587 31.868Z" fill="url(#paint0_linear_4_30)"/>
<path d="M7.29832 31.868C5.12397 31.207 2.22622 28.613 1.22401 26.4304C0.47006 24.7885 0.331563 23.2357 0.322606 16.3239C0.312217 8.30695 0.336538 8.11092 1.65355 5.61735C2.73957 3.56108 3.48421 2.82457 5.56308 1.75034C8.05398 0.463235 8.35724 0.423485 15.6646 0.426061C19.8081 0.427526 24.0647 0.666777 25.1238 0.957486C27.6377 1.64782 30.8738 4.84874 31.5717 7.33531C32.2604 9.78891 32.2663 22.4816 31.5798 24.967C30.8615 27.5682 29.0788 29.7715 26.6633 31.0434C24.837 32.0052 23.8822 32.1166 16.6936 32.2072C12.3212 32.2623 8.09331 32.1097 7.29832 31.868Z" fill="url(#paint1_linear_4_30)"/>
<path d="M6.86048 134.199C4.42879 133.327 1.9164 131.1 0.923247 128.937C0.158101 127.27 0.0195537 125.758 0.0105791 118.974C-0.000822816 110.451 0.357472 108.666 2.55251 106.304C4.86713 103.814 6.75745 103.403 15.8998 103.403C25.0422 103.403 26.9325 103.814 29.2472 106.304C31.4422 108.666 31.8004 110.451 31.7891 118.974C31.7802 125.722 31.6393 127.275 30.8877 128.912C29.7584 131.372 26.9829 133.649 24.301 134.317C21.528 135.008 8.87569 134.922 6.86048 134.199Z" fill="url(#paint2_linear_4_30)"/>
<path d="M42.3912 134.199C39.9595 133.327 37.4471 131.1 36.454 128.937C35.6888 127.27 35.5503 125.758 35.5413 118.974C35.5299 110.451 35.8882 108.666 38.0832 106.304C40.3979 103.814 42.2882 103.403 51.4306 103.403C60.5729 103.403 62.4633 103.814 64.7779 106.304C66.9729 108.666 67.3311 110.451 67.3198 118.974C67.3109 125.722 67.17 127.275 66.4184 128.912C65.2891 131.372 62.5137 133.649 59.8317 134.317C57.0587 135.008 44.4064 134.922 42.3912 134.199Z" fill="url(#paint3_linear_4_30)"/>
</g>
<path d="M123.56 103.89V102.72C123.56 99.78 122.57 97.53 120.59 95.97C118.67 94.35 116.15 93.54 113.03 93.54C110.63 93.54 108.74 93.96 107.36 94.8C106.04 95.58 104.78 96.78 103.58 98.4C103.22 98.88 102.83 99.21 102.41 99.39C101.99 99.57 101.42 99.66 100.7 99.66H98C97.34 99.66 96.74 99.42 96.2 98.94C95.72 98.46 95.51 97.89 95.57 97.23C95.75 95.43 96.62 93.66 98.18 91.92C99.8 90.12 101.93 88.65 104.57 87.51C107.21 86.37 110.03 85.8 113.03 85.8C118.61 85.8 123.11 87.36 126.53 90.48C130.01 93.6 131.75 97.98 131.75 103.62V131.07C131.75 131.73 131.51 132.3 131.03 132.78C130.55 133.26 129.98 133.5 129.32 133.5H125.99C125.33 133.5 124.76 133.26 124.28 132.78C123.8 132.3 123.56 131.73 123.56 131.07V127.38C122.6 129.54 120.56 131.25 117.44 132.51C114.32 133.77 111.2 134.4 108.08 134.4C105.02 134.4 102.29 133.86 99.89 132.78C97.49 131.64 95.63 130.11 94.31 128.19C93.05 126.27 92.42 124.11 92.42 121.71C92.42 117.21 94.1 113.7 97.46 111.18C100.82 108.6 105.29 106.86 110.87 105.96L123.56 103.89ZM123.56 111.09L112.94 112.8C109.04 113.4 106.01 114.39 103.85 115.77C101.69 117.09 100.61 118.77 100.61 120.81C100.61 122.31 101.3 123.66 102.68 124.86C104.06 126.06 106.16 126.66 108.98 126.66C113.3 126.66 116.81 125.43 119.51 122.97C122.21 120.51 123.56 117.3 123.56 113.34V111.09ZM153.071 131.07C153.071 131.73 152.831 132.3 152.351 132.78C151.871 133.26 151.301 133.5 150.641 133.5H147.311C146.651 133.5 146.081 133.26 145.601 132.78C145.121 132.3 144.881 131.73 144.881 131.07V72.03C144.881 71.37 145.121 70.8 145.601 70.32C146.081 69.84 146.651 69.6 147.311 69.6H150.641C151.301 69.6 151.871 69.84 152.351 70.32C152.831 70.8 153.071 71.37 153.071 72.03V131.07ZM185.04 85.8C191.46 85.8 196.53 87.84 200.25 91.92C203.97 96 205.83 101.55 205.83 108.57V111C205.83 111.66 205.59 112.23 205.11 112.71C204.63 113.19 204.06 113.43 203.4 113.43H172.44V113.97C172.56 117.93 173.76 121.05 176.04 123.33C178.38 125.55 181.38 126.66 185.04 126.66C188.04 126.66 190.35 126.27 191.97 125.49C193.65 124.71 195.15 123.6 196.47 122.16C196.95 121.68 197.37 121.35 197.73 121.17C198.15 120.99 198.69 120.9 199.35 120.9H202.05C202.77 120.9 203.37 121.14 203.85 121.62C204.33 122.1 204.54 122.67 204.48 123.33C204.24 124.95 203.34 126.63 201.78 128.37C200.28 130.05 198.09 131.49 195.21 132.69C192.39 133.83 189 134.4 185.04 134.4C181.2 134.4 177.78 133.53 174.78 131.79C171.78 129.99 169.38 127.53 167.58 124.41C165.84 121.29 164.79 117.78 164.43 113.88C164.31 112.08 164.25 110.7 164.25 109.74C164.25 108.78 164.31 107.4 164.43 105.6C164.79 101.88 165.84 98.52 167.58 95.52C169.38 92.52 171.75 90.15 174.69 88.41C177.69 86.67 181.14 85.8 185.04 85.8ZM197.73 105.87V105.6C197.73 101.94 196.56 99.03 194.22 96.87C191.94 94.65 188.88 93.54 185.04 93.54C181.56 93.54 178.59 94.65 176.13 96.87C173.73 99.09 172.5 102 172.44 105.6V105.87H197.73ZM228.928 117.75C228.928 120.33 229.438 122.31 230.458 123.69C231.538 125.07 233.548 125.76 236.488 125.76H241.258C241.918 125.76 242.488 126 242.968 126.48C243.448 126.96 243.688 127.53 243.688 128.19V131.07C243.688 131.73 243.448 132.3 242.968 132.78C242.488 133.26 241.918 133.5 241.258 133.5H235.588C230.488 133.5 226.738 132.18 224.338 129.54C221.938 126.84 220.738 122.91 220.738 117.75V94.44H214.078C213.418 94.44 212.848 94.2 212.368 93.72C211.888 93.24 211.648 92.67 211.648 92.01V89.13C211.648 88.47 211.888 87.9 212.368 87.42C212.848 86.94 213.418 86.7 214.078 86.7H220.738V72.03C220.738 71.37 220.978 70.8 221.458 70.32C221.938 69.84 222.508 69.6 223.167 69.6H226.498C227.158 69.6 227.728 69.84 228.208 70.32C228.688 70.8 228.928 71.37 228.928 72.03V86.7H240.358C241.018 86.7 241.588 86.94 242.068 87.42C242.548 87.9 242.788 88.47 242.788 89.13V92.01C242.788 92.67 242.548 93.24 242.068 93.72C241.588 94.2 241.018 94.44 240.358 94.44H228.928V117.75ZM264.963 117.75C264.963 120.33 265.473 122.31 266.493 123.69C267.573 125.07 269.583 125.76 272.523 125.76H277.293C277.953 125.76 278.523 126 279.003 126.48C279.483 126.96 279.723 127.53 279.723 128.19V131.07C279.723 131.73 279.483 132.3 279.003 132.78C278.523 133.26 277.953 133.5 277.293 133.5H271.623C266.523 133.5 262.773 132.18 260.373 129.54C257.973 126.84 256.773 122.91 256.773 117.75V94.44H250.113C249.453 94.44 248.883 94.2 248.403 93.72C247.923 93.24 247.683 92.67 247.683 92.01V89.13C247.683 88.47 247.923 87.9 248.403 87.42C248.883 86.94 249.453 86.7 250.113 86.7H256.773V72.03C256.773 71.37 257.013 70.8 257.493 70.32C257.973 69.84 258.543 69.6 259.203 69.6H262.533C263.193 69.6 263.763 69.84 264.243 70.32C264.723 70.8 264.963 71.37 264.963 72.03V86.7H276.393C277.053 86.7 277.623 86.94 278.103 87.42C278.583 87.9 278.823 88.47 278.823 89.13V92.01C278.823 92.67 278.583 93.24 278.103 93.72C277.623 94.2 277.053 94.44 276.393 94.44H264.963V117.75ZM312.518 86.7C313.178 86.7 313.748 86.94 314.228 87.42C314.708 87.9 314.948 88.47 314.948 89.13V92.01C314.948 92.67 314.708 93.24 314.228 93.72C313.748 94.2 313.178 94.44 312.518 94.44H307.298C303.938 94.44 301.358 95.34 299.558 97.14C297.818 98.88 296.948 101.43 296.948 104.79V131.07C296.948 131.73 296.708 132.3 296.228 132.78C295.748 133.26 295.178 133.5 294.518 133.5H291.188C290.528 133.5 289.958 133.26 289.478 132.78C288.998 132.3 288.758 131.73 288.758 131.07V89.13C288.758 88.47 288.998 87.9 289.478 87.42C289.958 86.94 290.528 86.7 291.188 86.7H294.518C295.178 86.7 295.748 86.94 296.228 87.42C296.708 87.9 296.948 88.47 296.948 89.13V91.92C298.148 90.12 299.588 88.8 301.268 87.96C302.948 87.12 305.138 86.7 307.838 86.7H312.518ZM336.541 148.44C336.001 149.88 335.131 150.6 333.931 150.6H330.241C329.641 150.6 329.131 150.39 328.711 149.97C328.291 149.55 328.081 149.04 328.081 148.44C328.081 148.2 328.111 147.99 328.171 147.81L336.811 129L318.991 89.49C318.931 89.31 318.901 89.1 318.901 88.86C318.901 88.26 319.111 87.75 319.531 87.33C319.951 86.91 320.461 86.7 321.061 86.7H324.751C325.951 86.7 326.821 87.42 327.361 88.86L341.221 119.46L355.261 88.86C355.801 87.42 356.671 86.7 357.871 86.7H361.561C362.161 86.7 362.671 86.91 363.091 87.33C363.511 87.75 363.721 88.26 363.721 88.86C363.721 89.1 363.691 89.31 363.631 89.49L336.541 148.44Z" fill="url(#paint4_linear_4_30)"/>
<defs>
<linearGradient id="paint0_linear_4_30" x1="59.9857" y1="0" x2="59.9857" y2="134.791" gradientUnits="userSpaceOnUse">
<stop stop-color="#2DD4BF"/>
<stop offset="0.5" stop-color="#818CF8"/>
<stop offset="1" stop-color="#8400D5"/>
</linearGradient>
<linearGradient id="paint1_linear_4_30" x1="59.9857" y1="0" x2="59.9857" y2="134.791" gradientUnits="userSpaceOnUse">
<stop stop-color="#2DD4BF"/>
<stop offset="0.5" stop-color="#818CF8"/>
<stop offset="1" stop-color="#8400D5"/>
</linearGradient>
<linearGradient id="paint2_linear_4_30" x1="59.9857" y1="0" x2="59.9857" y2="134.791" gradientUnits="userSpaceOnUse">
<stop stop-color="#2DD4BF"/>
<stop offset="0.5" stop-color="#818CF8"/>
<stop offset="1" stop-color="#8400D5"/>
</linearGradient>
<linearGradient id="paint3_linear_4_30" x1="59.9857" y1="0" x2="59.9857" y2="134.791" gradientUnits="userSpaceOnUse">
<stop stop-color="#2DD4BF"/>
<stop offset="0.5" stop-color="#818CF8"/>
<stop offset="1" stop-color="#8400D5"/>
</linearGradient>
<linearGradient id="paint4_linear_4_30" x1="137.264" y1="65.6145" x2="136.618" y2="165.524" gradientUnits="userSpaceOnUse">
<stop stop-color="#2DD4BF"/>
<stop offset="0.5" stop-color="#818CF8"/>
<stop offset="1" stop-color="#8400D5"/>
</linearGradient>
<clipPath id="clip0_4_30">
<rect width="120" height="135" fill="white"/>
</clipPath>
</defs>
</svg>
